<?xml version="1.0" encoding="utf-8"?>
<!-- Generator: Adobe Illustrator 19.0.0, SVG Export Plug-In . SVG Version: 6.00 Build 0)  -->
<svg version="1.1" id="Layer_1" xmlns="http://www.w3.org/2000/svg" xmlns:xlink="http://www.w3.org/1999/xlink" x="0px" y="0px"
	 viewBox="-255 347 100 100" style="enable-background:new -255 347 100 100;" xml:space="preserve">
<style type="text/css">
	.st0{fill:#FFFFFF;}
</style>
<g>
	<path class="st0" d="M-186,383h-38c-1.1,0-2-0.9-2-2s0.9-2,2-2h38c1.1,0,2,0.9,2,2S-184.9,383-186,383z M-222,387h30
		c1.1,0,2,0.9,2,2s-0.9,2-2,2h-30c-1.1,0-2-0.9-2-2S-223.1,387-222,387z M-210,395h22c1.1,0,2,0.9,2,2s-0.9,2-2,2h-22
		c-1.1,0-2-0.9-2-2S-211.1,395-210,395z M-208,411h6c1.1,0,2,0.9,2,2s-0.9,2-2,2h-6c-1.1,0-2-0.9-2-2S-209.1,411-208,411z M-207,405
		c0-1.1,0.9-2,2-2h14c1.1,0,2,0.9,2,2s-0.9,2-2,2h-14C-206.1,407-207,406.1-207,405z"/>
</g>
</svg>
