<?xml version="1.0" encoding="utf-8"?>
<!-- Generator: Adobe Illustrator 19.0.0, SVG Export Plug-In . SVG Version: 6.00 Build 0)  -->
<svg version="1.1" id="Layer_1" xmlns="http://www.w3.org/2000/svg" xmlns:xlink="http://www.w3.org/1999/xlink" x="0px" y="0px"
	 viewBox="-255 347 100 100" style="enable-background:new -255 347 100 100;" xml:space="preserve">
<style type="text/css">
	.st0{fill:#FFFFFF;}
</style>
<g>
	<path class="st0" d="M-195.3,393.8l-2,1.1c0.2,0.7,0.3,1.4,0.3,2.1s-0.1,1.5-0.3,2.1l2,1.1c1,0.6,1.3,1.8,0.7,2.7
		c-0.6,1-1.8,1.3-2.7,0.7l-2-1.1c-1,1-2.3,1.8-3.7,2.1v2.3c0,1.1-0.9,2-2,2s-2-0.9-2-2v-2.3c-1.4-0.4-2.7-1.1-3.7-2.1l-2,1.1
		c-1,0.6-2.2,0.2-2.7-0.7c-0.6-1-0.2-2.2,0.7-2.7l2-1.1c-0.2-0.7-0.3-1.4-0.3-2.1s0.1-1.5,0.3-2.1l-2-1.1c-1-0.6-1.3-1.8-0.7-2.7
		c0.6-1,1.8-1.3,2.7-0.7l2,1.1c1-1,2.3-1.8,3.7-2.1v-2.3c0-1.1,0.9-2,2-2s2,0.9,2,2v2.3c1.4,0.4,2.7,1.1,3.7,2.1l2-1.1
		c1-0.6,2.2-0.2,2.7,0.7C-194.1,392.1-194.4,393.3-195.3,393.8z M-205,393.1c-2.2,0-4,1.8-4,4s1.8,4,4,4s4-1.8,4-4
		S-202.8,393.1-205,393.1z"/>
</g>
</svg>
