<svg xmlns="http://www.w3.org/2000/svg" viewBox="0 0 21.416 23.8"><path d="M20.408 8.7l-2 1.1c.2.7.3 1.4.3 2.1s-.1 1.5-.3 2.1l2 1.1c1 .6 1.3 1.8.7 2.7-.6 1-1.8 1.3-2.7.7l-2-1.1c-1 1-2.3 1.8-3.7 2.1v2.3c0 1.1-.9 2-2 2s-2-.9-2-2v-2.3c-1.4-.4-2.7-1.1-3.7-2.1l-2 1.1c-1 .6-2.2.2-2.7-.7-.6-1-.2-2.2.7-2.7l2-1.1c-.2-.7-.3-1.4-.3-2.1s.1-1.5.3-2.1l-2-1.1c-1-.6-1.3-1.8-.7-2.7.6-1 1.8-1.3 2.7-.7l2 1.1c1-1 2.3-1.8 3.7-2.1V2c0-1.1.9-2 2-2s2 .9 2 2v2.3c1.4.4 2.7 1.1 3.7 2.1l2-1.1c1-.6 2.2-.2 2.7.7.5 1 .2 2.2-.7 2.7zm-9.7-.7c-2.2 0-4 1.8-4 4s1.8 4 4 4 4-1.8 4-4-1.8-4-4-4z" fill="#fff"/></svg>