<?xml version="1.0" encoding="utf-8"?>
<!-- Generator: Adobe Illustrator 19.0.0, SVG Export Plug-In . SVG Version: 6.00 Build 0)  -->
<svg version="1.1" id="Layer_1" xmlns="http://www.w3.org/2000/svg" xmlns:xlink="http://www.w3.org/1999/xlink" x="0px" y="0px"
	 viewBox="-255 347 100 100" style="enable-background:new -255 347 100 100;" xml:space="preserve">
<style type="text/css">
	.st0{fill:#FFFFFF;}
</style>
<g>
	<path class="st0" d="M-183.5,412c-1.1,0-2-0.9-2-2s0.9-2,2-2s2,0.9,2,2S-182.4,412-183.5,412z M-192.5,405.3v-4.4
		c2.4-1.4,4-4,4-6.9c0-4.4-3.6-8-8-8c-1.6,0-3.1,0.5-4.3,1.3c-1.2-5.3-6-9.3-11.7-9.3c-6.6,0-12,5.4-12,12c0,3.5,1.6,6.7,4,8.9v4.9
		c-4.8-2.8-8-7.9-8-13.8c0-8.8,7.2-16,16-16c6,0,11.2,3.3,14,8.2c0.7-0.1,1.3-0.2,2-0.2c6.6,0,12,5.4,12,12
		C-184.5,399.3-187.8,403.7-192.5,405.3z M-225.5,413c1.1,0,2,0.9,2,2s-0.9,2-2,2s-2-0.9-2-2S-226.6,413-225.5,413z M-215.5,396
		c0-1.1-0.1-2,1-2s1,0.9,1,2v24h-2l0,0l0,0c0-2.2-1.8-4-4-4v-2c1.5,0,2.9,0.6,4,1.6V396z M-206.5,410c-1.1,0-1-0.9-1-2v-8
		c0-1.1-0.1-2,1-2s1,0.9,1,2v8C-205.5,409.1-205.4,410-206.5,410z M-206.5,414c1.1,0,2,0.9,2,2s-0.9,2-2,2s-2-0.9-2-2
		S-207.6,414-206.5,414z M-198.5,394c1.1,0,1,0.9,1,2v18c1.8-2.4,4.7-4,8-4v2c-4.4,0-8,3.6-8,8h-2c0-0.3,0-0.5,0-0.8
		c-0.1-0.3,0-0.7,0-1.2v-22C-199.5,394.9-199.6,394-198.5,394z"/>
</g>
</svg>
