<?xml version="1.0" encoding="utf-8"?>
<!-- Generator: Adobe Illustrator 19.0.0, SVG Export Plug-In . SVG Version: 6.00 Build 0)  -->
<svg version="1.1" id="Layer_1" xmlns="http://www.w3.org/2000/svg" xmlns:xlink="http://www.w3.org/1999/xlink" x="0px" y="0px"
	 viewBox="-255 347 100 100" style="enable-background:new -255 347 100 100;" xml:space="preserve">
<style type="text/css">
	.st0{fill:#FFFFFF;}
</style>
<g>
	<path class="st0" d="M-225.8,404c-0.3-0.6-0.5-1.3-0.6-2h43.5c0,0.7-0.1,1.3-0.2,2H-225.8z M-218.8,384c2.3-1.3,4.9-2,7.7-2
		c2.8,0,5.4,0.7,7.7,2H-218.8z M-226.8,396c0.1-0.7,0.2-1.3,0.4-2h40.4c0.6,0.6,1,1.3,1.5,2H-226.8z M-225.8,392
		c0.3-0.7,0.6-1.4,1-2h27.7c0,0.1,0.1,0.1,0.1,0.2c0.7-0.1,1.3-0.2,2-0.2c2.5,0,4.7,0.7,6.6,2H-225.8z M-223.4,388
		c0.6-0.7,1.2-1.4,1.9-2h21.1c0.7,0.6,1.3,1.3,1.9,2H-223.4z M-183.3,400H-227c-0.1-0.7-0.1-1.3-0.1-2h43.3
		C-183.4,398.7-183.3,399.4-183.3,400z M-183.8,406c-0.2,0.7-0.6,1.4-0.9,2h-38.9c-0.5-0.6-1-1.3-1.4-2H-183.8z M-221.6,410h35.5
		c-0.7,0.8-1.4,1.4-2.3,2h-30.4C-219.8,411.5-220.8,410.8-221.6,410z"/>
</g>
</svg>
