<svg xmlns="http://www.w3.org/2000/svg" viewBox="0 0 44.2 30"><path d="M1.3 22c-.3-.6-.5-1.3-.6-2h43.5c0 .7-.1 1.3-.2 2H1.3zm7-20C10.6.7 13.2 0 16 0s5.4.7 7.7 2H8.3zm-8 12c.1-.7.2-1.3.4-2h40.4c.6.6 1 1.3 1.5 2H.3zm1-4c.3-.7.6-1.4 1-2H30c0 .1.1.1.1.2.7-.1 1.3-.2 2-.2 2.5 0 4.7.7 6.6 2H1.3zm2.4-4c.6-.7 1.2-1.4 1.9-2h21.1c.7.6 1.3 1.3 1.9 2H3.7zm40.1 12H.1c-.1-.7-.1-1.3-.1-2h43.3c.4.7.5 1.4.5 2zm-.5 6c-.2.7-.6 1.4-.9 2H3.5c-.5-.6-1-1.3-1.4-2h41.2zM5.5 28H41c-.7.8-1.4 1.4-2.3 2H8.3c-1-.5-2-1.2-2.8-2z" fill="#fff"/></svg>