<svg xmlns="http://www.w3.org/2000/svg" viewBox="0 0 48 36"><path d="M46 26h-4c-1.1 0-2-.9-2-2s.9-2 2-2h4c1.1 0 2 .9 2 2s-.9 2-2 2zm-7.9-13.3c-.8.8-2 .8-2.8 0s-.8-2 0-2.8l2.8-2.8c.8-.8 2-.8 2.8 0s.8 2 0 2.8l-2.8 2.8zM35.3 28h-4.4c.7-1.2 1.1-2.5 1.1-4 0-4.4-3.6-8-8-8s-8 3.6-8 8c0 1.5.4 2.8 1.1 4h-4.4c-.4-1.3-.7-2.6-.7-4 0-6.6 5.4-12 12-12s12 5.4 12 12c0 1.4-.3 2.7-.7 4zM24 8c-1.1 0-2-.9-2-2V2c0-1.1.9-2 2-2s2 .9 2 2v4c0 1.1-.9 2-2 2zM9.9 12.7L7.1 9.9c-.8-.8-.8-2 0-2.8s2-.8 2.8 0l2.8 2.8c.8.8.8 2 0 2.8s-2.1.8-2.8 0zM8 24c0 1.1-.9 2-2 2H2c-1.1 0-2-.9-2-2s.9-2 2-2h4c1.1 0 2 .9 2 2zm6 8h20c1.1 0 2 .9 2 2s-.9 2-2 2H14c-1.1 0-2-.9-2-2s.9-2 2-2z" fill="#fff"/></svg>