<?xml version="1.0" encoding="utf-8"?>
<!-- Generator: Adobe Illustrator 19.0.0, SVG Export Plug-In . SVG Version: 6.00 Build 0)  -->
<svg version="1.1" id="Layer_1" xmlns="http://www.w3.org/2000/svg" xmlns:xlink="http://www.w3.org/1999/xlink" x="0px" y="0px"
	 viewBox="-255 347 100 100" style="enable-background:new -255 347 100 100;" xml:space="preserve">
<style type="text/css">
	.st0{fill:#FFFFFF;}
</style>
<g>
	<path class="st0" d="M-211,413c-8.8,0-16-7.2-16-16s7.2-16,16-16c6,0,11.2,3.3,14,8.2c0.7-0.1,1.3-0.2,2-0.2c6.6,0,12,5.4,12,12
		s-5.4,12-12,12C-197.7,413-207.8,413-211,413z M-195,409c4.4,0,8-3.6,8-8s-3.6-8-8-8c-1.6,0-3.1,0.5-4.3,1.3
		c-1.2-5.3-6-9.3-11.7-9.3c-6.6,0-12,5.4-12,12s5.4,12,12,12C-207.3,409-198,409-195,409z"/>
</g>
</svg>
