<svg xmlns="http://www.w3.org/2000/svg" viewBox="0 0 45 39"><path d="M41.8 20.1C43.2 22 44 24.4 44 27c0 6.6-5.4 12-12 12H16C7.2 39 0 31.8 0 23S7.2 7 16 7c2 0 3.9.4 5.7 1 1.6-4.7 6.1-8 11.3-8 .8 0 1.5.1 2.2.2-.1.6-.2 1.2-.2 1.8 0 4.4 3.6 8 8 8 .6 0 1.2-.1 1.8-.2.1.7.2 1.5.2 2.2-.1 3.1-1.3 5.9-3.2 8.1zM3.9 22.9c0 6.6 5.4 12 12 12h16c4.4 0 8-3.6 8-8s-3.6-8-8-8c-1.6 0-3.1.5-4.3 1.3-1.2-5.3-6-9.3-11.7-9.3-6.6 0-12 5.4-12 12zM31.2 4.2c-2.9.7-5.2 2.9-5.9 5.8 1.9 1.4 3.5 3.2 4.7 5.2.7-.1 1.3-.2 2-.2 2.6 0 5 .8 7 2.3.9-1 1.5-2.2 1.8-3.5-4.9-1-8.7-4.8-9.6-9.6z" fill="#fff"/></svg>