<?xml version="1.0" encoding="utf-8"?>
<!-- Generator: Adobe Illustrator 19.0.0, SVG Export Plug-In . SVG Version: 6.00 Build 0)  -->
<svg version="1.1" id="Layer_1" xmlns="http://www.w3.org/2000/svg" xmlns:xlink="http://www.w3.org/1999/xlink" x="0px" y="0px"
	 viewBox="-255 347 100 100" style="enable-background:new -255 347 100 100;" xml:space="preserve">
<style type="text/css">
	.st0{fill:#FFFFFF;}
</style>
<g>
	<path class="st0" d="M-185.7,393.6L-185.7,393.6c0.6,0.9,1.1,1.9,1.5,2.9l0,0l0,0h-4.4l0,0l0,0c-1.4-2.4-4-4-6.9-4
		c-1.6,0-3.1,0.5-4.3,1.3c-1.2-5.3-6-9.3-11.7-9.3c-6.6,0-12,5.4-12,12l0,0h-4l0,0c0-8.8,7.2-16,16-16c2,0,3.9,0.4,5.7,1l0,0
		c1.6-4.7,6.1-8,11.3-8c0.8,0,1.5,0.1,2.2,0.2c-0.1,0.6-0.2,1.2-0.2,1.8c0,4.4,3.6,8,8,8c0.6,0,1.2-0.1,1.8-0.2
		c0.1,0.7,0.2,1.5,0.2,2.2C-182.5,388.6-183.7,391.5-185.7,393.6z M-196.3,377.8c-2.9,0.7-5.2,2.9-5.9,5.8l0,0
		c1.9,1.4,3.5,3.2,4.7,5.2c0.7-0.1,1.3-0.2,2-0.2c2.6,0,5,0.8,7,2.3l0,0c0.9-1,1.5-2.2,1.8-3.5
		C-191.6,386.4-195.4,382.6-196.3,377.8z M-225.5,400.5h40c1.1,0,2,0.9,2,2s-0.9,2-2,2h-40c-1.1,0-2-0.9-2-2
		S-226.6,400.5-225.5,400.5z M-225.5,408.5h40c1.1,0,2,0.9,2,2s-0.9,2-2,2h-40c-1.1,0-2-0.9-2-2S-226.6,408.5-225.5,408.5z
		 M-225.5,416.5h40c1.1,0,2,0.9,2,2s-0.9,2-2,2h-40c-1.1,0-2-0.9-2-2S-226.6,416.5-225.5,416.5z"/>
</g>
</svg>
