<?xml version="1.0" encoding="utf-8"?>
<!-- Generator: Adobe Illustrator 19.0.0, SVG Export Plug-In . SVG Version: 6.00 Build 0)  -->
<svg version="1.1" id="Layer_1" xmlns="http://www.w3.org/2000/svg" xmlns:xlink="http://www.w3.org/1999/xlink" x="0px" y="0px"
	 viewBox="-255 347 100 100" style="enable-background:new -255 347 100 100;" xml:space="preserve">
<style type="text/css">
	.st0{fill:#FFFFFF;}
</style>
<g>
	<path class="st0" d="M-180,395h-4c-1.1,0-2-0.9-2-2s0.9-2,2-2h4c1.1,0,2,0.9,2,2S-178.9,395-180,395z M-187.9,381.7
		c-0.8,0.8-2,0.8-2.8,0s-0.8-2,0-2.8l2.8-2.8c0.8-0.8,2-0.8,2.8,0s0.8,2,0,2.8L-187.9,381.7z M-190.8,397.3L-190.8,397.3
		c0.9,1.1,1.6,2.3,2.1,3.7h-4.4c-1.4-2.4-4-4-6.9-4c-1.6,0-3.1,0.5-4.3,1.3c-1.2-5.3-6-9.3-11.7-9.3c-6.6,0-12,5.4-12,12h-4
		c0-8.8,7.2-16,16-16c1.6,0,3.1,0.2,4.5,0.7c2.2-2.8,5.6-4.7,9.5-4.7c6.6,0,12,5.4,12,12C-190,394.6-190.3,396-190.8,397.3z
		 M-202,385c-2.2,0-4.2,0.9-5.7,2.4c2.3,1.4,4.3,3.5,5.6,5.9c0.7-0.1,1.3-0.2,2-0.2c2.1,0,4.1,0.6,5.8,1.5l0,0
		c0.1-0.5,0.1-1,0.1-1.5C-194,388.6-197.6,385-202,385z M-202,377c-1.1,0-2-0.9-2-2v-4c0-1.1,0.9-2,2-2s2,0.9,2,2v4
		C-200,376.2-200.9,377-202,377z M-216.1,381.7l-2.8-2.8c-0.8-0.8-0.8-2,0-2.8s2-0.8,2.8,0l2.8,2.8c0.8,0.8,0.8,2,0,2.8
		S-215.4,382.5-216.1,381.7z M-230,405h40c1.1,0,2,0.9,2,2s-0.9,2-2,2h-40c-1.1,0-2-0.9-2-2S-231.1,405-230,405z M-230,413h40
		c1.1,0,2,0.9,2,2s-0.9,2-2,2h-40c-1.1,0-2-0.9-2-2S-231.1,413-230,413z M-230,421h40c1.1,0,2,0.9,2,2s-0.9,2-2,2h-40
		c-1.1,0-2-0.9-2-2S-231.1,421-230,421z"/>
</g>
</svg>
