<svg xmlns="http://www.w3.org/2000/svg" viewBox="0 0 54 56"><path d="M52 26h-4c-1.1 0-2-.9-2-2s.9-2 2-2h4c1.1 0 2 .9 2 2s-.9 2-2 2zm-7.9-13.3c-.8.8-2 .8-2.8 0s-.8-2 0-2.8l2.8-2.8c.8-.8 2-.8 2.8 0s.8 2 0 2.8l-2.8 2.8zm-2.9 15.6c.9 1.1 1.6 2.3 2.1 3.7h-4.4c-1.4-2.4-4-4-6.9-4-1.6 0-3.1.5-4.3 1.3C26.5 24 21.7 20 16 20 9.4 20 4 25.4 4 32H0c0-8.8 7.2-16 16-16 1.6 0 3.1.2 4.5.7 2.2-2.8 5.6-4.7 9.5-4.7 6.6 0 12 5.4 12 12 0 1.6-.3 3-.8 4.3zM30 16c-2.2 0-4.2.9-5.7 2.4 2.3 1.4 4.3 3.5 5.6 5.9.7-.1 1.3-.2 2-.2 2.1 0 4.1.6 5.8 1.5.1-.5.1-1 .1-1.5.2-4.5-3.4-8.1-7.8-8.1zm0-8c-1.1 0-2-.9-2-2V2c0-1.1.9-2 2-2s2 .9 2 2v4c0 1.2-.9 2-2 2zm-14.1 4.7l-2.8-2.8c-.8-.8-.8-2 0-2.8s2-.8 2.8 0l2.8 2.8c.8.8.8 2 0 2.8s-2.1.8-2.8 0zM2 36h40c1.1 0 2 .9 2 2s-.9 2-2 2H2c-1.1 0-2-.9-2-2s.9-2 2-2zm0 8h40c1.1 0 2 .9 2 2s-.9 2-2 2H2c-1.1 0-2-.9-2-2s.9-2 2-2zm0 8h40c1.1 0 2 .9 2 2s-.9 2-2 2H2c-1.1 0-2-.9-2-2s.9-2 2-2z" fill="#fff"/></svg>