<?xml version="1.0" encoding="utf-8"?>
<!-- Generator: Adobe Illustrator 19.0.0, SVG Export Plug-In . SVG Version: 6.00 Build 0)  -->
<svg version="1.1" id="Layer_1" xmlns="http://www.w3.org/2000/svg" xmlns:xlink="http://www.w3.org/1999/xlink" x="0px" y="0px"
	 viewBox="-255 347 100 100" style="enable-background:new -255 347 100 100;" xml:space="preserve">
<style type="text/css">
	.st0{fill:#FFFFFF;}
</style>
<g>
	<path class="st0" d="M-180,393h-4c-1.1,0-2-0.9-2-2s0.9-2,2-2h4c1.1,0,2,0.9,2,2S-178.9,393-180,393z M-187.9,379.7
		c-0.8,0.8-2,0.8-2.8,0c-0.8-0.8-0.8-2,0-2.8l2.8-2.8c0.8-0.8,2-0.8,2.8,0c0.8,0.8,0.8,2,0,2.8L-187.9,379.7z M-190.8,395.3
		L-190.8,395.3c1.3,1.6,2.3,3.6,2.6,5.7l0,0c0.1,0.7,0.2,1.3,0.2,2c0,6.6-5.4,12-12,12c-0.3,0-0.6,0-1.1,0l3.6-4.4
		c3.2-1.1,5.5-4.1,5.5-7.6c0-0.7-0.1-1.4-0.3-2l0,0c-0.9-3.4-4-6-7.7-6c-1.6,0-3.1,0.5-4.3,1.3c-1.2-5.3-6-9.3-11.7-9.3
		c-6.6,0-12,5.4-12,12c0,0.7,0.1,1.3,0.2,2l0,0c0.8,4.5,4.1,8.2,8.4,9.5l-1.4,3.8c-5.9-1.8-10.3-7-11.1-13.3l0,0
		c-0.1-0.7-0.1-1.3-0.1-2c0-8.8,7.2-16,16-16c1.6,0,3.1,0.2,4.5,0.7c2.2-2.8,5.6-4.7,9.5-4.7c6.6,0,12,5.4,12,12
		C-190,392.6-190.3,394-190.8,395.3z M-202,383c-2.2,0-4.2,0.9-5.7,2.4c2.3,1.4,4.3,3.5,5.6,5.9c0.7-0.1,1.3-0.2,2-0.2
		c2.1,0,4.1,0.6,5.8,1.5l0,0c0.1-0.5,0.1-1,0.1-1.5C-194,386.6-197.6,383-202,383z M-202,375c-1.1,0-2-0.9-2-2v-4c0-1.1,0.9-2,2-2
		s2,0.9,2,2v4C-200,374.1-200.9,375-202,375z M-216.1,379.7l-2.8-2.8c-0.8-0.8-0.8-2,0-2.8c0.8-0.8,2-0.8,2.8,0l2.8,2.8
		c0.8,0.8,0.8,2,0,2.8C-214.1,380.5-215.4,380.5-216.1,379.7z M-212,401h10l-6,10h7l-13,16l3.6-12h-6.6L-212,401z"/>
</g>
</svg>
