<?xml version="1.0" encoding="utf-8"?>
<!-- Generator: Adobe Illustrator 19.0.0, SVG Export Plug-In . SVG Version: 6.00 Build 0)  -->
<svg version="1.1" id="Layer_1" xmlns="http://www.w3.org/2000/svg" xmlns:xlink="http://www.w3.org/1999/xlink" x="0px" y="0px"
	 viewBox="-255 347 100 100" style="enable-background:new -255 347 100 100;" xml:space="preserve">
<style type="text/css">
	.st0{fill:#FFFFFF;}
</style>
<g>
	<path class="st0" d="M-180,393h-4c-1.1,0-2-0.9-2-2s0.9-2,2-2h4c1.1,0,2,0.9,2,2S-178.9,393-180,393z M-187.8,379.7
		c-0.8,0.8-2,0.8-2.8,0s-0.8-2,0-2.8l2.8-2.8c0.8-0.8,2-0.8,2.8,0s0.8,2,0,2.8L-187.8,379.7z M-190.8,395.3L-190.8,395.3
		c1.8,2.1,2.8,4.8,2.8,7.7c0,5.2-3.3,9.7-8,11.3v-4.4c2.4-1.4,4-4,4-6.9c0-4.4-3.6-8-8-8c-1.6,0-3.1,0.5-4.3,1.3
		c-1.2-5.3-6-9.3-11.7-9.3c-6.6,0-12,5.4-12,12c0,3.6,1.6,6.7,4,8.9v4.9c-4.8-2.8-8-7.9-8-13.8c0-8.8,7.2-16,16-16
		c1.6,0,3.1,0.2,4.5,0.7c2.2-2.8,5.6-4.7,9.5-4.7c6.6,0,12,5.4,12,12C-190,392.6-190.3,394-190.8,395.3z M-202,383
		c-2.2,0-4.2,0.9-5.7,2.3c2.3,1.4,4.3,3.5,5.6,5.9c0.7-0.1,1.3-0.2,2-0.2c2.1,0,4.1,0.6,5.8,1.5l0,0c0.1-0.5,0.2-1,0.2-1.5
		C-194,386.6-197.5,383-202,383z M-202,375c-1.1,0-2-0.9-2-2v-4c0-1.1,0.9-2,2-2s2,0.9,2,2v4C-200,374.2-200.9,375-202,375z
		 M-216.1,379.7l-2.8-2.8c-0.8-0.8-0.8-2,0-2.8s2-0.8,2.8,0l2.8,2.8c0.8,0.8,0.8,2,0,2.8C-214,380.5-215.3,380.5-216.1,379.7z
		 M-218,403c1.1,0,2,0.9,2,2v16c0,1.1-0.9,2-2,2s-2-0.9-2-2v-16C-220,403.9-219.1,403-218,403z M-210,407c1.1,0,2,0.9,2,2v16
		c0,1.1-0.9,2-2,2s-2-0.9-2-2v-16C-212,407.9-211.1,407-210,407z M-202,403c1.1,0,2,0.9,2,2v16c0,1.1-0.9,2-2,2s-2-0.9-2-2v-16
		C-204,403.9-203.1,403-202,403z"/>
</g>
</svg>
