<svg xmlns="http://www.w3.org/2000/svg" viewBox="0 0 54 48"><path d="M52 26h-4c-1.1 0-2-.9-2-2s.9-2 2-2h4c1.1 0 2 .9 2 2s-.9 2-2 2zm-7.8-13.3c-.8.8-2 .8-2.8 0s-.8-2 0-2.8l2.8-2.8c.8-.8 2-.8 2.8 0s.8 2 0 2.8l-2.8 2.8zm-3 15.6c1.7 2.1 2.8 4.8 2.8 7.7 0 6.6-5.4 12-12 12H16C7.2 48 0 40.8 0 32s7.2-16 16-16c1.6 0 3.1.2 4.5.7 2.2-2.8 5.6-4.7 9.5-4.7 6.6 0 12 5.4 12 12 0 1.6-.3 3-.8 4.3zM4 32c0 6.6 5.4 12 12 12h16c4.4 0 8-3.6 8-8s-3.6-8-8-8c-1.6 0-3.1.5-4.3 1.3C26.5 24 21.7 20 16 20 9.4 20 4 25.4 4 32zm26-16c-2.2 0-4.2.9-5.7 2.3 2.3 1.4 4.3 3.5 5.6 5.9.7-.1 1.3-.2 2-.2 2.1 0 4.1.6 5.8 1.5.1-.5.2-1 .2-1.5.1-4.4-3.4-8-7.9-8zm0-8c-1.1 0-2-.9-2-2V2c0-1.1.9-2 2-2s2 .9 2 2v4c0 1.1-.9 2-2 2zm-14.1 4.7l-2.8-2.8c-.8-.8-.8-2 0-2.8s2-.8 2.8 0l2.8 2.8c.8.8.8 2 0 2.8-.7.8-2 .8-2.8 0z" fill="#fff"/></svg>