<svg xmlns="http://www.w3.org/2000/svg" viewBox="0 0 45 51"><path d="M41.8 20.1C43.2 22 44 24.4 44 27c0 5.2-3.3 9.7-8 11.3v-4.4c2.4-1.4 4-4 4-6.9 0-4.4-3.6-8-8-8-1.6 0-3.1.5-4.3 1.3C26.5 15 21.7 11 16 11 9.4 11 4 16.4 4 23c0 3.5 1.5 6.7 4 8.9v4.9C3.2 34 0 28.9 0 23 0 14.2 7.2 7 16 7c2 0 3.9.4 5.7 1 1.6-4.7 6.1-8 11.3-8 .8 0 1.5.1 2.2.2-.1.6-.2 1.2-.2 1.8 0 4.4 3.6 8 8 8 .6 0 1.2-.1 1.8-.2.1.7.2 1.5.2 2.2-.1 3.1-1.3 6-3.2 8.1zM31.2 4.3c-2.9.7-5.2 2.9-5.9 5.8 1.9 1.4 3.5 3.2 4.7 5.2.7-.1 1.3-.2 2-.2 2.6 0 5 .8 7 2.3.9-1 1.5-2.2 1.8-3.5-4.9-1-8.7-4.8-9.6-9.6zM13.9 27c1.1 0 2 .9 2 2v4c0 1.1-.9 2-2 2s-2-.9-2-2v-4c0-1.1.9-2 2-2zm0 12c1.1 0 2 .9 2 2v4c0 1.1-.9 2-2 2s-2-.9-2-2v-4c0-1.1.9-2 2-2zm8-8c1.1 0 2 .9 2 2v4c0 1.1-.9 2-2 2s-2-.9-2-2v-4c0-1.1.9-2 2-2zm0 12c1.1 0 2 .9 2 2v4c0 1.1-.9 2-2 2s-2-.9-2-2v-4c0-1.1.9-2 2-2zm8-16c1.1 0 2 .9 2 2v4c0 1.1-.9 2-2 2s-2-.9-2-2v-4c0-1.1.9-2 2-2zm0 12c1.1 0 2 .9 2 2v4c0 1.1-.9 2-2 2s-2-.9-2-2v-4c0-1.1.9-2 2-2z" fill="#fff"/></svg>