<svg xmlns="http://www.w3.org/2000/svg" viewBox="0 0 44 37.8"><path d="M34 31.8v-4.1c3.4-.9 6-4 6-7.7 0-4.4-3.6-8-8-8-1.6 0-3.1.5-4.3 1.3C26.5 8 21.7 4 16 4 9.4 4 4 9.4 4 16c0 4.4 2.4 8.3 6 10.4v4.4C4.1 28.4 0 22.7 0 16 0 7.2 7.2 0 16 0c6 0 11.2 3.3 14 8.2.7-.1 1.3-.2 2-.2 6.6 0 12 5.4 12 12 0 5.9-4.3 10.8-10 11.8zm-18.9-5.9c.6-1 1.8-1.3 2.7-.7l2.2 1.3V24c0-1.1.9-2 2-2s2 .9 2 2v2.5l2.2-1.3c1-.6 2.2-.2 2.7.7.6 1 .2 2.2-.7 2.7L26 29.9l2.2 1.3c1 .6 1.3 1.8.7 2.7-.6 1-1.8 1.3-2.7.7L24 33.3v2.5c0 1.1-.9 2-2 2s-2-.9-2-2v-2.5l-2.2 1.3c-1 .6-2.2.2-2.7-.7-.6-1-.2-2.2.7-2.7l2.2-1.3-2.2-1.3c-1-.5-1.3-1.7-.7-2.7zm6.9 6c1.1 0 2-.9 2-2s-.9-2-2-2-2 .9-2 2 .9 2 2 2z" fill="#fff"/></svg>