<?xml version="1.0" encoding="utf-8"?>
<!-- Generator: Adobe Illustrator 19.0.0, SVG Export Plug-In . SVG Version: 6.00 Build 0)  -->
<svg version="1.1" id="Layer_1" xmlns="http://www.w3.org/2000/svg" xmlns:xlink="http://www.w3.org/1999/xlink" x="0px" y="0px"
	 viewBox="-255 347 100 100" style="enable-background:new -255 347 100 100;" xml:space="preserve">
<style type="text/css">
	.st0{fill:#FFFFFF;}
</style>
<g>
	<path class="st0" d="M-193,409.9v-4.1c3.4-0.9,6-4,6-7.7c0-4.4-3.6-8-8-8c-1.6,0-3.1,0.5-4.3,1.3c-1.2-5.3-6-9.3-11.7-9.3
		c-6.6,0-12,5.4-12,12c0,4.4,2.4,8.3,6,10.4v4.4c-5.9-2.4-10-8.1-10-14.8c0-8.8,7.2-16,16-16c6,0,11.2,3.3,14,8.2
		c0.7-0.1,1.3-0.2,2-0.2c6.6,0,12,5.4,12,12C-183,404-187.3,408.9-193,409.9z M-211.9,404c0.6-1,1.8-1.3,2.7-0.7l2.2,1.3v-2.5
		c0-1.1,0.9-2,2-2s2,0.9,2,2v2.5l2.2-1.3c1-0.6,2.2-0.2,2.7,0.7c0.6,1,0.2,2.2-0.7,2.7l-2.2,1.3l2.2,1.3c1,0.6,1.3,1.8,0.7,2.7
		c-0.6,1-1.8,1.3-2.7,0.7l-2.2-1.3v2.5c0,1.1-0.9,2-2,2s-2-0.9-2-2v-2.5l-2.2,1.3c-1,0.6-2.2,0.2-2.7-0.7c-0.6-1-0.2-2.2,0.7-2.7
		l2.2-1.3l-2.2-1.3C-212.2,406.2-212.5,405-211.9,404z M-205,410c1.1,0,2-0.9,2-2s-0.9-2-2-2s-2,0.9-2,2S-206.1,410-205,410z"/>
</g>
</svg>
