<?xml version="1.0" encoding="utf-8"?>
<!-- Generator: Adobe Illustrator 19.0.0, SVG Export Plug-In . SVG Version: 6.00 Build 0)  -->
<svg version="1.1" id="Layer_1" xmlns="http://www.w3.org/2000/svg" xmlns:xlink="http://www.w3.org/1999/xlink" x="0px" y="0px"
	 viewBox="-255 347 100 100" style="enable-background:new -255 347 100 100;" xml:space="preserve">
<style type="text/css">
	.st0{fill:#FFFFFF;}
</style>
<g>
	<path class="st0" d="M-185.8,391.6L-185.8,391.6c1,1.4,1.7,3.1,2,4.9l0,0c0.1,0.7,0.2,1.3,0.2,2c0,6.6-5.4,12-12,12
		c-0.3,0-0.6,0-1.1,0l3.6-4.4c3.2-1.1,5.5-4.1,5.5-7.6c0-0.7-0.1-1.4-0.3-2l0,0c-0.9-3.4-4-6-7.7-6c-1.6,0-3.1,0.5-4.3,1.3
		c-1.2-5.3-6-9.3-11.7-9.3c-6.6,0-12,5.4-12,12c0,0.7,0.1,1.3,0.2,2l0,0c0.8,4.5,4.1,8.2,8.4,9.5l-1.3,3.8
		c-5.9-1.8-10.3-7-11.1-13.3l0,0c-0.1-0.7-0.1-1.3-0.1-2c0-8.8,7.2-16,16-16c2,0,3.9,0.4,5.7,1l0,0c1.6-4.7,6.1-8,11.3-8
		c0.8,0,1.5,0.1,2.2,0.2c-0.1,0.6-0.2,1.2-0.2,1.8c0,4.4,3.6,8,8,8c0.6,0,1.2-0.1,1.8-0.2c0.1,0.7,0.2,1.5,0.2,2.2
		C-182.6,386.6-183.8,389.5-185.8,391.6z M-196.4,375.8c-2.9,0.7-5.2,2.9-5.9,5.8l0,0c1.9,1.4,3.5,3.2,4.7,5.2
		c0.7-0.1,1.3-0.2,2-0.2c2.6,0,5,0.8,7,2.3l0,0c0.9-1,1.5-2.2,1.8-3.5C-191.7,384.4-195.5,380.6-196.4,375.8z M-207.6,396.5h10
		l-6,10h7l-13,16l3.6-12h-6.6L-207.6,396.5z"/>
</g>
</svg>
