<svg xmlns="http://www.w3.org/2000/svg" viewBox="0 0 45 51"><path d="M41.7 20.1c1 1.4 1.7 3.1 2 4.9.1.7.2 1.3.2 2 0 6.6-5.4 12-12 12h-1.1l3.6-4.4c3.2-1.1 5.5-4.1 5.5-7.6 0-.7-.1-1.4-.3-2-.9-3.4-4-6-7.7-6-1.6 0-3.1.5-4.3 1.3-1.2-5.3-6-9.3-11.7-9.3-6.6 0-12 5.4-12 12 0 .7.1 1.3.2 2 .8 4.5 4.1 8.2 8.4 9.5l-1.3 3.8C5.3 36.5.9 31.3.1 25c-.1-.7-.1-1.3-.1-2C0 14.2 7.2 7 16 7c2 0 3.9.4 5.7 1 1.6-4.7 6.1-8 11.3-8 .8 0 1.5.1 2.2.2-.1.6-.2 1.2-.2 1.8 0 4.4 3.6 8 8 8 .6 0 1.2-.1 1.8-.2.1.7.2 1.5.2 2.2-.1 3.1-1.3 6-3.3 8.1zM31.1 4.3c-2.9.7-5.2 2.9-5.9 5.8 1.9 1.4 3.5 3.2 4.7 5.2.7-.1 1.3-.2 2-.2 2.6 0 5 .8 7 2.3.9-1 1.5-2.2 1.8-3.5-4.9-1-8.7-4.8-9.6-9.6zM19.9 25h10l-6 10h7l-13 16 3.6-12h-6.6l5-14z" fill="#fff"/></svg>