<?xml version="1.0" encoding="utf-8"?>
<!-- Generator: Adobe Illustrator 19.0.0, SVG Export Plug-In . SVG Version: 6.00 Build 0)  -->
<svg version="1.1" id="Layer_1" xmlns="http://www.w3.org/2000/svg" xmlns:xlink="http://www.w3.org/1999/xlink" x="0px" y="0px"
	 viewBox="-255 347 100 100" style="enable-background:new -255 347 100 100;" xml:space="preserve">
<style type="text/css">
	.st0{fill:#FFFFFF;}
</style>
<g>
	<path class="st0" d="M-191,406.3v-4.4c2.4-1.4,4-4,4-6.9c0-4.4-3.6-8-8-8c-1.6,0-3.1,0.5-4.3,1.3c-1.2-5.3-6-9.3-11.7-9.3
		c-6.6,0-12,5.4-12,12c0,3.5,1.6,6.7,4,8.9v4.9c-4.8-2.8-8-7.9-8-13.8c0-8.8,7.2-16,16-16c6,0,11.2,3.3,14,8.2
		c0.7-0.1,1.3-0.2,2-0.2c6.6,0,12,5.4,12,12C-183,400.3-186.3,404.7-191,406.3z M-213,407c-1.1,0-1-0.9-1-2v-8c0-1.1-0.1-2,1-2
		s1,0.9,1,2v8C-212,406.1-211.9,407-213,407z M-213,411c1.1,0,2,0.9,2,2s-0.9,2-2,2s-2-0.9-2-2S-214.1,411-213,411z M-205,411
		c-1.1,0-1-0.9-1-2v-8c0-1.1-0.1-2,1-2s1,0.9,1,2v8C-204,410.1-203.9,411-205,411z M-205,415c1.1,0,2,0.9,2,2s-0.9,2-2,2s-2-0.9-2-2
		S-206.1,415-205,415z M-197,407c-1.1,0-1-0.9-1-2v-8c0-1.1-0.1-2,1-2s1,0.9,1,2v8C-196,406.1-195.9,407-197,407z M-197,411
		c1.1,0,2,0.9,2,2s-0.9,2-2,2s-2-0.9-2-2S-198.1,411-197,411z"/>
</g>
</svg>
