<svg xmlns="http://www.w3.org/2000/svg" viewBox="0 0 44 44"><path d="M36 31.3v-4.4c2.4-1.4 4-4 4-6.9 0-4.4-3.6-8-8-8-1.6 0-3.1.5-4.3 1.3C26.5 8 21.7 4 16 4 9.4 4 4 9.4 4 16c0 3.5 1.6 6.7 4 8.9v4.9C3.2 27 0 21.9 0 16 0 7.2 7.2 0 16 0c6 0 11.2 3.3 14 8.2.7-.1 1.3-.2 2-.2 6.6 0 12 5.4 12 12 0 5.3-3.3 9.7-8 11.3zM14 32c-1.1 0-1-.9-1-2v-8c0-1.1-.1-2 1-2s1 .9 1 2v8c0 1.1.1 2-1 2zm0 4c1.1 0 2 .9 2 2s-.9 2-2 2-2-.9-2-2 .9-2 2-2zm8 0c-1.1 0-1-.9-1-2v-8c0-1.1-.1-2 1-2s1 .9 1 2v8c0 1.1.1 2-1 2zm0 4c1.1 0 2 .9 2 2s-.9 2-2 2-2-.9-2-2 .9-2 2-2zm8-8c-1.1 0-1-.9-1-2v-8c0-1.1-.1-2 1-2s1 .9 1 2v8c0 1.1.1 2-1 2zm0 4c1.1 0 2 .9 2 2s-.9 2-2 2-2-.9-2-2 .9-2 2-2z" fill="#fff"/></svg>