<svg xmlns="http://www.w3.org/2000/svg" viewBox="0 0 44.1 42.4"><path d="M32 8c-.7 0-1.4.1-2 .2C27.3 3.3 22 0 16 0 7.2 0 0 7.2 0 16c0 6 3.3 11.2 8.2 13.9.3-1.3.9-2.5 1.9-3.4l.1-.1c-3.6-2.1-6.1-6-6.1-10.4 0-6.6 5.4-12 12-12 5.7 0 10.4 4 11.7 9.3 1.3-.8 2.7-1.3 4.3-1.3 4.4 0 8 3.6 8 8 0 3.4-2.2 6.4-5.2 7.5.8 1.1 1.2 2.5 1.2 3.8 4.7-1.6 8-6.1 8-11.3C44 13.4 38.6 8 32 8zM15 27.3l-2.1 2.1c-1.2 1.2-1.2 3.1 0 4.2 1.2 1.2 3.1 1.2 4.2 0 1.2-1.2 1.2-3.1 0-4.2L15 27.3zm7 7.9l-2.1 2.1c-1.2 1.2-1.2 3.1 0 4.2 1.2 1.2 3.1 1.2 4.2 0 1.2-1.2 1.2-3.1 0-4.2L22 35.2zm7-7.9l-2.1 2.1c-1.2 1.2-1.2 3.1 0 4.2 1.2 1.2 3.1 1.2 4.2 0 1.2-1.2 1.2-3.1 0-4.2L29 27.3z" fill="#fff"/></svg>